<?xml version="1.0" encoding="utf-8"?>
<!-- Generator: Adobe Illustrator 24.3.0, SVG Export Plug-In . SVG Version: 6.00 Build 0)  -->
<svg version="1.1" id="katman_1" xmlns="http://www.w3.org/2000/svg" xmlns:xlink="http://www.w3.org/1999/xlink" x="0px" y="0px"
	 viewBox="0 0 412 95" style="enable-background:new 0 0 412 95;" xml:space="preserve">
<style type="text/css">
	.st0{fill:#05A85C;}
	.st1{fill:#6D6E71;}
	.st2{fill:#49DE94;}
</style>
<path class="st0" d="M125.8,79V11.4h27.1v7.2h-19.2v25h16.7v7.3h-16.7v28L125.8,79L125.8,79z"/>
<path class="st0" d="M190.1,68.1c0,1.5-0.3,2.9-0.8,4.2c-0.6,1.3-1.3,2.5-2.3,3.5s-2.1,1.8-3.5,2.3c-1.3,0.6-2.8,0.8-4.2,0.8h-9.2
	c-1.5,0-3-0.3-4.3-0.8c-1.3-0.6-2.5-1.3-3.5-2.3s-1.8-2.1-2.4-3.5c-0.6-1.3-0.8-2.8-0.8-4.2V22.4c0-1.5,0.3-2.9,0.8-4.2
	c0.6-1.3,1.4-2.5,2.4-3.5s2.2-1.8,3.5-2.3c1.3-0.6,2.7-0.8,4.3-0.8h9.2c1.5,0,2.9,0.3,4.2,0.8c1.3,0.6,2.5,1.3,3.5,2.3
	s1.8,2.1,2.3,3.5c0.6,1.3,0.8,2.8,0.8,4.2V68.1z M166.9,68.3c0,1,0.3,1.8,1,2.4c0.7,0.7,1.5,1,2.4,1h8.6c1,0,1.8-0.3,2.4-1
	c0.7-0.7,1-1.5,1-2.4V22.1c0-1-0.3-1.8-1-2.4c-0.7-0.7-1.5-1-2.4-1h-8.6c-1,0-1.8,0.3-2.4,1c-0.7,0.7-1,1.5-1,2.4V68.3z"/>
<path class="st0" d="M214.1,60.3c1-4.6,2-9.3,3-13.8c1-4.6,2-9.2,3-13.8c-0.8-3.6-1.5-7.1-2.3-10.6s-1.5-7-2.3-10.6h7.1
	c1.8,8.2,3.6,16.3,5.3,24.4c1.8,8.1,3.5,16.3,5.3,24.4c1.7-8.2,3.5-16.3,5.3-24.4s3.6-16.3,5.4-24.4h8L237.2,79h-7
	c-1.1-5.1-2.2-10.1-3.3-15c-1.1-4.9-2.2-9.9-3.3-15c-1.1,5.1-2.2,10.1-3.3,15c-1.1,4.9-2.2,9.9-3.3,15h-7l-14.7-67.5h8
	c1.7,8.2,3.5,16.3,5.3,24.4C210.5,44,212.3,52.1,214.1,60.3z"/>
<path class="st1" d="M265.6,11.4v60.5h2.3V79h-3.6c-1.8,0-3.4-0.6-4.7-1.9s-1.9-2.8-1.9-4.6v-61L265.6,11.4L265.6,11.4z"/>
<path class="st1" d="M281,68.5c0,0.8,0.3,1.6,1,2.3c0.7,0.7,1.5,1.1,2.4,1.1h8.8c1.5,0,2.4-0.6,2.8-1.8s0.5-2.4,0.5-3.8h7.4v2.2
	c-0.1,1.4-0.4,2.8-1,4c-0.6,1.3-1.4,2.4-2.3,3.3c-1,1-2.1,1.7-3.4,2.2c-1.3,0.5-2.6,0.8-4.1,0.8H284c-1.5,0-2.9-0.3-4.2-0.8
	c-1.3-0.6-2.5-1.3-3.4-2.3c-1-1-1.8-2.1-2.3-3.4c-0.6-1.3-0.8-2.7-0.8-4.2V44.9c0-1.6,0.2-3.1,0.7-4.6s1.2-2.7,2.1-3.8
	c1-1.1,2.1-2,3.4-2.6c1.3-0.7,2.8-1,4.6-1h9.1c1.7,0,3.2,0.3,4.5,1c1.3,0.7,2.5,1.5,3.4,2.6c0.9,1.1,1.6,2.3,2.1,3.8
	c0.5,1.4,0.7,2.9,0.7,4.6v16.3h-23v7.3H281z M296.3,54.2V43.3c0-0.9-0.3-1.7-1-2.3c-0.7-0.7-1.5-1-2.4-1h-8.5c-0.9,0-1.7,0.3-2.4,1
	s-1,1.4-1,2.3v10.9H296.3z"/>
<path class="st1" d="M333.9,43.4c0-0.9-0.3-1.7-1-2.4c-0.7-0.7-1.5-1-2.4-1h-7.9c-0.8,0-1.5,0.2-1.9,0.5c-0.4,0.3-0.8,0.8-1,1.3
	c-0.2,0.5-0.3,1.1-0.4,1.8c-0.1,0.7-0.1,1.4-0.1,2h-7.1c0-0.3,0-0.5,0-0.8c0-0.2,0-0.5,0-0.8c0-1.5,0.3-2.9,0.8-4.3
	c0.5-1.4,1.3-2.6,2.2-3.6s2.1-1.8,3.4-2.5c1.3-0.6,2.8-0.9,4.4-0.9h7.9c1.5,0,2.9,0.3,4.2,0.8c1.3,0.6,2.5,1.3,3.4,2.3
	c1,1,1.8,2.1,2.3,3.4c0.6,1.3,0.8,2.7,0.8,4.2v35.3h-19.9c-1.5,0-2.9-0.3-4.2-0.8c-1.3-0.6-2.4-1.3-3.4-2.3s-1.8-2.1-2.3-3.4
	c-0.6-1.3-0.8-2.7-0.8-4.2v-6.6c0-1.5,0.3-2.9,0.8-4.2c0.6-1.3,1.3-2.5,2.3-3.4c1-1,2.1-1.8,3.4-2.3c1.3-0.6,2.7-0.8,4.2-0.8h12.2
	v-7.3H333.9z M333.9,57.6h-12c-1.4,0-2.3,0.5-2.7,1.6c-0.4,1.1-0.6,2.2-0.6,3.5v5.8c0,0.8,0.3,1.5,0.9,2.3c0.6,0.7,1.4,1.1,2.4,1.1
	h12V57.6z"/>
<path class="st1" d="M363.8,32.9c1.4,0,2.7,0.3,3.9,0.8c1.2,0.5,2.4,1.2,3.3,2.1c1,0.9,1.7,1.9,2.3,3.1c0.6,1.2,1,2.4,1.1,3.8
	c0.1,0.3,0.2,0.8,0.2,1.5c0,0.7,0,1.2,0,1.5h-7.1c0-0.2,0-0.6,0-1.3c0-0.7,0-1.1-0.1-1.2c-0.1-0.8-0.5-1.4-1.1-1.9
	c-0.6-0.5-1.3-0.8-2.1-0.8h-7.4v38.8h-7.7V32.9H363.8z"/>
<path class="st1" d="M400.6,32.9c1.5,0,2.9,0.3,4.2,0.8c1.3,0.6,2.5,1.3,3.4,2.3c1,1,1.8,2.1,2.3,3.4c0.6,1.3,0.8,2.7,0.8,4.2V79
	h-7.7V43.3c0-1-0.3-1.8-1-2.4c-0.7-0.7-1.5-1-2.4-1h-11.9v39h-7.7v-46H400.6z"/>
<path class="st0" d="M82.4,47.1L76,73.2l-50.2-0.1l12.8-51.9h20.9L64.7,0H23.3L0,94.4l91.3,0.1L103,47.2L82.4,47.1z"/>
<path class="st2" d="M91.5,37.5H96l6.9-27.9H76.4L75.3,14l21.9,0.1L91.5,37.5z"/>
</svg>
